<svg xmlns="http://www.w3.org/2000/svg" viewBox="0 0 900 700">
  <defs>
    <linearGradient id="chatbg" x1="0" y1="0" x2="1" y2="1">
      <stop offset="0%" stop-color="#0f172a"/>
      <stop offset="100%" stop-color="#134e4a"/>
    </linearGradient>
    <linearGradient id="botglow" x1="0" y1="0" x2="1" y2="1">
      <stop offset="0%" stop-color="#22d3ee" stop-opacity="0.95"/>
      <stop offset="100%" stop-color="#a855f7" stop-opacity="0.95"/>
    </linearGradient>
    <radialGradient id="orb" cx="50%" cy="30%" r="45%">
      <stop offset="0%" stop-color="#34d399" stop-opacity="0.9"/>
      <stop offset="100%" stop-color="#0f172a" stop-opacity="0"/>
    </radialGradient>
  </defs>
  <rect width="900" height="700" fill="url(#chatbg)"/>
  <circle cx="180" cy="150" r="110" fill="#10b981" opacity="0.18"/>
  <circle cx="740" cy="120" r="90" fill="#38bdf8" opacity="0.14"/>
  <circle cx="530" cy="520" r="140" fill="#a855f7" opacity="0.15"/>
  <rect x="110" y="170" width="240" height="320" rx="34" fill="#0f172a" opacity="0.95"/>
  <rect x="320" y="190" width="380" height="240" rx="32" fill="#0f172a" opacity="0.96"/>
  <rect x="360" y="240" width="300" height="160" rx="25" fill="#0f172a" opacity="0.88"/>
  <path d="M680 340 C680 255, 600 180, 520 180 C440 180, 360 255, 360 340 C360 425, 440 500, 520 500 C600 500, 680 425, 680 340 Z" fill="url(#botglow)" opacity="0.24"/>
  <rect x="305" y="245" width="310" height="90" rx="22" fill="#0f172a"/>
  <rect x="340" y="280" width="80" height="36" rx="14" fill="#38bdf8"/>
  <rect x="445" y="280" width="180" height="36" rx="14" fill="#94a3b8"/>
  <circle cx="480" cy="390" r="80" fill="#0f172a"/>
  <circle cx="450" cy="370" r="16" fill="#f8fafc"/>
  <circle cx="520" cy="370" r="16" fill="#f8fafc"/>
  <path d="M430 430 C440 460, 520 460, 530 430" stroke="#38bdf8" stroke-width="10" fill="none" stroke-linecap="round"/>
  <path d="M265 540 C280 530, 320 520, 350 530" stroke="#f8fafc" stroke-width="10" fill="none" stroke-linecap="round" opacity="0.8"/>
  <path d="M260 150 C310 110, 420 100, 520 130" stroke="#fff" stroke-width="12" fill="none" opacity="0.5"/>
  <text x="105" y="620" fill="#ffffff" font-family="Inter, sans-serif" font-size="48" font-weight="700">Chronos</text>
  <text x="105" y="670" fill="#94a3b8" font-family="Inter, sans-serif" font-size="22">Assistant IA temporel</text>
</svg>
