<svg xmlns="http://www.w3.org/2000/svg" viewBox="0 0 1200 800">
  <defs>
    <linearGradient id="bg" x1="0" y1="0" x2="1" y2="1">
      <stop offset="0%" stop-color="#0f172a"/>
      <stop offset="100%" stop-color="#1e3a8a"/>
    </linearGradient>
    <linearGradient id="portal" x1="0" y1="0" x2="1" y2="1">
      <stop offset="0%" stop-color="#38bdf8" stop-opacity="0.95"/>
      <stop offset="100%" stop-color="#9333ea" stop-opacity="0.85"/>
    </linearGradient>
    <radialGradient id="glow" cx="50%" cy="40%" r="40%">
      <stop offset="0%" stop-color="#38bdf8" stop-opacity="0.7"/>
      <stop offset="100%" stop-color="#0f172a" stop-opacity="0"/>
    </radialGradient>
  </defs>
  <rect width="1200" height="800" fill="url(#bg)"/>
  <circle cx="250" cy="180" r="120" fill="#38bdf8" opacity="0.18"/>
  <circle cx="990" cy="160" r="100" fill="#f472b6" opacity="0.18"/>
  <rect x="120" y="560" width="360" height="140" rx="36" fill="#1e293b" opacity="0.9"/>
  <rect x="695" y="430" width="360" height="220" rx="36" fill="#111827" opacity="0.92"/>
  <circle cx="620" cy="380" r="180" fill="url(#glow)"/>
  <path d="M590 210 C 620 100, 780 130, 780 260 C 780 390, 620 420, 590 310 C 560 200, 740 150, 730 280" fill="none" stroke="#38bdf8" stroke-width="18" stroke-linecap="round" opacity="0.8"/>
  <path d="M600 240 C 650 80, 850 120, 880 260 C 910 400, 720 430, 700 300" fill="none" stroke="#a78bfa" stroke-width="16" stroke-linecap="round" opacity="0.9"/>
  <path d="M510 380 C 540 280, 620 250, 720 260 C 800 270, 860 360, 820 430 C 790 480, 700 500, 640 480 C 600 470, 570 420, 510 380" fill="url(#portal)" opacity="0.88"/>
  <circle cx="628" cy="353" r="78" fill="none" stroke="#eff6ff" stroke-width="10" opacity="0.9"/>
  <g opacity="0.9">
    <path d="M295 500 L295 320 C295 276, 335 236, 379 236 H451 C495 236, 535 276, 535 320 L535 500 Z" fill="#0f172a"/>
    <path d="M320 500 L320 340 C320 311, 343 288, 372 288 H405 C434 288, 457 311, 457 340 L457 500 Z" fill="#1e293b"/>
    <rect x="350" y="360" width="60" height="100" rx="20" fill="#38bdf8" opacity="0.9"/>
  </g>
  <text x="640" y="700" fill="#ffffff" font-family="Inter, sans-serif" font-size="52" font-weight="700">Explorez le temps</text>
  <text x="640" y="760" fill="#c7d2fe" font-family="Inter, sans-serif" font-size="24">Illustration de voyage temporel</text>
</svg>
